<svg width="18" height="19" viewBox="0 0 18 19" fill="none" xmlns="http://www.w3.org/2000/svg">
<path fill-rule="evenodd" clip-rule="evenodd" d="M2.25 9.5C2.25 9.28659 2.3389 8.8923 2.59878 8.39333C2.85166 7.90779 3.24397 7.3676 3.78996 6.8636C4.87297 5.8639 6.56732 5 9 5C11.4327 5 13.127 5.8639 14.21 6.8636C14.756 7.3676 15.1483 7.90779 15.4012 8.39333C15.6611 8.8923 15.75 9.28659 15.75 9.5C15.75 9.71341 15.6611 10.1077 15.4012 10.6067C15.1483 11.0922 14.756 11.6324 14.21 12.1364C13.127 13.1361 11.4327 14 9 14C6.56732 14 4.87297 13.1361 3.78996 12.1364C3.24397 11.6324 2.85166 11.0922 2.59878 10.6067C2.3389 10.1077 2.25 9.71341 2.25 9.5ZM9 3.5C6.18268 3.5 4.12703 4.5111 2.77254 5.7614C2.09978 6.3824 1.60146 7.06096 1.26841 7.70042C0.942354 8.32645 0.75 8.96341 0.75 9.5C0.75 10.0366 0.942354 10.6736 1.26841 11.2996C1.60146 11.939 2.09978 12.6176 2.77254 13.2386C4.12703 14.4889 6.18268 15.5 9 15.5C11.8173 15.5 13.873 14.4889 15.2275 13.2386C15.9002 12.6176 16.3985 11.939 16.7316 11.2996C17.0576 10.6736 17.25 10.0366 17.25 9.5C17.25 8.96341 17.0576 8.32645 16.7316 7.70042C16.3985 7.06096 15.9002 6.3824 15.2275 5.7614C13.873 4.5111 11.8173 3.5 9 3.5ZM7.49993 9.50002C7.49993 8.67159 8.1715 8.00002 8.99993 8.00002C9.82835 8.00002 10.4999 8.67159 10.4999 9.50002C10.4999 10.3284 9.82835 11 8.99993 11C8.1715 11 7.49993 10.3284 7.49993 9.50002ZM8.99993 6.50002C7.34307 6.50002 5.99993 7.84316 5.99993 9.50002C5.99993 11.1569 7.34307 12.5 8.99993 12.5C10.6568 12.5 11.9999 11.1569 11.9999 9.50002C11.9999 7.84316 10.6568 6.50002 8.99993 6.50002Z" fill="#98A2B3"/>
</svg>
